# xmcd
#
# Track frame offsets: 
#        150
#        14495
#        25655
#        39257
#        49672
#        64462
#        78062
#        92372
#        110185
#        125207
#        141142
#        152102
#        165630
#        182982
#        202172
#        219200
#
# Disc length: 3100 seconds
#
# Revision: 2
# Processed by: cddbd v1.5.2PL0 Copyright (c) Steve Scherf et al.
# Submitted via: ExactAudioCopy v0.95b4
#
DISCID=dd0c1a10
DTITLE=Ricky Skaggs - Country Gentleman  The Best Of Ricky Skaggs - Di
DTITLE=sc 1
DYEAR=1998
DGENRE=Country
TTITLE0=Don't Get Above Your Raisin'
TTITLE1=You May See Me Walkin'
TTITLE2=Crying My Heart Out Over You
TTITLE3=I Don't Care
TTITLE4=Heartbroke
TTITLE5=I Wouldn't Change You If I Could
TTITLE6=Highway 40 Blues
TTITLE7=You've Got A Lover
TTITLE8=Don't Cheat In Our Hometown
TTITLE9=Honey (Open That Door)
TTITLE10=Uncle Pen
TTITLE11=Something In My Heart
TTITLE12=Country Boy
TTITLE13=You Make Me Feel Like A Man
TTITLE14=Cajun Moon
TTITLE15=I've Got A New Heartache
EXTD=
EXTT0=
EXTT1=
EXTT2=
EXTT3=
EXTT4=
EXTT5=
EXTT6=
EXTT7=
EXTT8=
EXTT9=
EXTT10=
EXTT11=
EXTT12=
EXTT13=
EXTT14=
EXTT15=
PLAYORDER=
